<svg 
    xmlns="http://www.w3.org/2000/svg" 
    viewBox="0 0 500 500" 
    width="100%" 
    height="100%" 
    fill="none"
>
    <path 
        d="M 250,40 
           C 350,40 440,70 440,125 
           C 440,265 380,415 250,480 
           C 120,415 60,265 60,125 
           C 60,70 150,40 250,40 Z" 
        stroke="#72EDC5" 
        stroke-width="24" 
        stroke-linejoin="round" 
        stroke-linecap="round"
        fill="none"
    />

    <g fill="#F75D9E">
        <path d="M 200,110 
                 C 233,110 260,137 260,170 
                 C 260,198 240,221 212,228 
                 L 212,203 
                 C 226,198 236,185 236,170 
                 C 236,150 220,134 200,134 
                 C 180,134 164,150 164,170 
                 C 164,185 174,198 188,203 
                 L 188,228 
                 C 160,221 140,198 140,170 
                 C 140,137 167,110 200,110 Z" />
        
        <path d="M 188,200 L 212,200 L 212,330 C 212,345 225,350 240,350 L 240,360 L 160,360 L 160,350 C 175,350 188,345 188,330 Z" />
        
        <path d="M 212,242 L 287,167 C 302,152 312,147 327,147 L 342,147 L 342,169 L 327,169 C 311,169 300,179 282,197 L 212,267 Z" />
        
        <path d="M 212,260 L 292,337 C 304,349 314,354 334,354 L 344,354 L 344,372 L 272,372 L 272,354 C 287,354 287,349 277,339 L 212,276 Z" />
        
        <rect x="223" y="242" width="18" height="18" rx="3" transform="rotate(45 232 251)" />
    </g>

    <g stroke="#F75D9E" stroke-width="10" stroke-linecap="round">
        <line x1="212" y1="222" x2="262" y2="222" />
        <line x1="212" y1="292" x2="272" y2="292" />
    </g>
</svg>
